HIERARCHY
ROOT root
{
	OFFSET 0.000000 0.000000 0.000000
	CHANNELS 6 Xposition Yposition Zposition Zrotation Yrotation Xrotation
	JOINT lhip
	{
		OFFSET 0.058581 -0.082280 -0.017664
		CHANNELS 3 Zrotation Yrotation Xrotation
		JOINT lknee
		{
			OFFSET 0.043451 -0.386469 0.008037
			CHANNELS 3 Zrotation Yrotation Xrotation
			JOINT lankle
			{
				OFFSET -0.014790 -0.426874 -0.037428
				CHANNELS 3 Zrotation Yrotation Xrotation
				JOINT ltoe
				{
					OFFSET 0.041054 -0.060286 0.122042
					CHANNELS 3 Zrotation Yrotation Xrotation
					End Site
					{
						OFFSET 0.000000 0.000000 0.000000
					}
				}
			}
		}
	}
	JOINT rhip
	{
		OFFSET -0.060310 -0.090513 -0.013543
		CHANNELS 3 Zrotation Yrotation Xrotation
		JOINT rknee
		{
			OFFSET -0.043257 -0.383688 -0.004843
			CHANNELS 3 Zrotation Yrotation Xrotation
			JOINT rankle
			{
				OFFSET 0.019056 -0.420046 -0.034562
				CHANNELS 3 Zrotation Yrotation Xrotation
				JOINT rtoe
				{
					OFFSET -0.034840 -0.062106 0.130323
					CHANNELS 3 Zrotation Yrotation Xrotation
					End Site
					{
						OFFSET 0.000000 0.000000 0.000000
					}
				}
			}
		}
	}
	JOINT lowerback
	{
		OFFSET 0.004439 0.124404 -0.038385
		CHANNELS 3 Zrotation Yrotation Xrotation
		JOINT upperback
		{
			OFFSET 0.004488 0.137956 0.026820
			CHANNELS 3 Zrotation Yrotation Xrotation
			JOINT chest
			{
				OFFSET -0.002265 0.056032 0.002855
				CHANNELS 3 Zrotation Yrotation Xrotation
				JOINT lowerneck
				{
					OFFSET -0.013390 0.211636 -0.033468
					CHANNELS 3 Zrotation Yrotation Xrotation
					JOINT upperneck
					{
						OFFSET 0.010113 0.088937 0.050410
						CHANNELS 3 Zrotation Yrotation Xrotation
						End Site
						{
							OFFSET 0.000000 0.000000 0.000000
						}
					}
				}
				JOINT lclavicle
				{
					OFFSET 0.071702 0.114000 -0.018898
					CHANNELS 3 Zrotation Yrotation Xrotation
					JOINT lshoulder
					{
						OFFSET 0.122921 0.045205 -0.019046
						CHANNELS 3 Zrotation Yrotation Xrotation
						JOINT lelbow
						{
							OFFSET 0.255332 -0.015649 -0.022946
							CHANNELS 3 Zrotation Yrotation Xrotation
							JOINT lwrist
							{
								OFFSET 0.265709 0.012698 -0.007375
								CHANNELS 3 Zrotation Yrotation Xrotation
								End Site
								{
									OFFSET 0.000000 0.000000 0.000000
								}
							}
						}
					}
				}
				JOINT rclavicle
				{
					OFFSET -0.082954 0.112472 -0.023707
					CHANNELS 3 Zrotation Yrotation Xrotation
					JOINT rshoulder
					{
						OFFSET -0.113228 0.046853 -0.008472
						CHANNELS 3 Zrotation Yrotation Xrotation
						JOINT relbow
						{
							OFFSET -0.260127 -0.014369 -0.031269
							CHANNELS 3 Zrotation Yrotation Xrotation
							JOINT rwrist
							{
								OFFSET -0.269108 0.006794 -0.006027
								CHANNELS 3 Zrotation Yrotation Xrotation
								End Site
								{
									OFFSET 0.000000 0.000000 0.000000
								}
							}
						}
					}
				}
			}
		}
	}
}
MOTION
Frames: 17
Frame Time: 0.033333
1.281156 -0.292052 0.337902 -4.328458 -31.316568 76.305614 39.847049 10.341666 -43.910187 -10.944785 -0.494610 124.551501 -3.484233 5.789246 -7.076628 0.000000 -0.000000 0.000000 6.527754 -2.315558 -76.571164 -15.834232 -30.759939 142.643332 7.386669 6.479350 36.630420 0.000000 -0.000000 0.000000 -12.797059 -3.276149 45.015376 -0.591086 -7.398816 -8.795518 -0.660165 -8.209240 -10.208777 -15.825198 9.529161 16.467759 2.922807 3.364240 -7.954925 -13.324586 -27.457380 10.091402 -29.597682 -26.470624 -0.028168 -4.656891 -55.342208 23.406445 12.396401 -9.410342 -19.939384 11.328359 15.040537 7.782597 56.268829 10.480955 6.166134 -2.071254 35.407940 21.083653 -48.726555 5.436638 -17.181058 
1.284438 -0.291778 0.337002 -3.279435 -30.381935 75.626582 40.590816 10.376568 -44.550427 -10.976003 -0.462631 124.955499 -3.075223 6.380244 -8.439365 0.000000 -0.000000 0.000000 6.566195 -3.364381 -76.636675 -16.284209 -31.416342 143.117636 7.238768 5.948044 36.718168 0.000000 -0.000000 0.000000 -12.942101 -2.720375 45.294854 -0.631274 -7.053028 -8.588755 -0.688060 -7.882318 -10.548461 -15.744420 9.719910 16.141201 2.863860 2.732913 -7.560120 -14.404796 -26.728750 10.392421 -27.787350 -25.663830 -0.495787 -4.501659 -53.787994 21.799203 11.977746 -9.202048 -20.576415 13.272913 14.961012 8.563273 53.878342 9.969979 5.699222 -1.426401 33.936577 20.007392 -49.192495 5.146398 -18.139246 
1.287670 -0.291761 0.335984 -2.125137 -29.475998 75.045106 41.258278 10.393934 -45.346671 -10.991468 -0.421549 125.295816 -2.561154 6.982269 -9.820482 0.000000 -0.000000 0.000000 6.480699 -4.447490 -76.827468 -16.712101 -32.141065 143.543850 7.242044 5.502482 36.858466 0.000000 -0.000000 0.000000 -13.164482 -2.049516 45.497282 -0.549955 -6.807129 -8.353685 -0.653788 -7.556707 -10.857381 -15.672969 9.962790 15.914983 2.866245 1.845828 -7.262835 -15.156345 -26.278525 10.575574 -26.327825 -25.417571 -0.757687 -4.453127 -51.548539 20.463627 11.722434 -8.864632 -20.934878 15.168306 14.673602 9.377367 51.536129 9.527944 5.158160 -0.686169 32.531068 19.158356 -49.528013 4.716474 -19.018290 
1.290810 -0.291872 0.334877 -0.903255 -28.609940 74.586382 41.795996 10.462519 -46.298511 -11.036228 -0.351467 125.649204 -2.037791 7.417367 -11.248847 0.000000 -0.000000 0.000000 6.356803 -5.543837 -77.131471 -17.161104 -32.838337 143.911557 7.314532 5.152209 37.047629 0.000000 -0.000000 0.000000 -13.346692 -1.350446 45.654753 -0.484940 -6.601702 -8.105759 -0.608251 -7.306491 -11.073263 -15.601775 10.057923 15.793439 2.987894 0.863230 -7.207540 -15.536631 -26.186785 10.734051 -25.288884 -25.559274 -1.027131 -4.294494 -48.917145 19.273009 11.792066 -8.530326 -20.910774 16.358663 14.259876 9.936780 50.010344 9.257629 4.498265 0.123760 30.967238 18.491722 -49.648716 4.221446 -20.166448 
1.293551 -0.292214 0.334067 0.232272 -27.833651 74.200025 42.200147 10.683920 -47.156411 -10.906706 -0.487392 125.941706 -1.657595 7.879102 -12.561526 0.000000 -0.000000 0.000000 6.311355 -6.574106 -77.389326 -17.648062 -33.301178 144.183805 7.437386 4.881471 37.358590 0.000000 -0.000000 0.000000 -13.429337 -0.654066 45.908311 -0.674820 -6.406026 -7.908924 -0.497383 -7.138565 -11.208570 -15.736225 9.804533 16.103340 3.421473 0.211767 -7.743946 -15.035151 -26.680367 10.803216 -25.138369 -25.769285 -1.385974 -4.087525 -45.994939 19.066742 12.061745 -8.164684 -20.664512 15.754926 14.353548 10.013447 50.689871 9.075188 3.959377 0.684427 28.905142 17.818004 -49.614464 3.243498 -21.899512 
1.295671 -0.292596 0.333816 1.312230 -27.130291 73.764000 42.374060 10.962184 -47.886263 -10.813230 -0.919949 126.138810 -1.408912 8.255870 -13.739946 0.000000 -0.000000 0.000000 6.512947 -7.590162 -77.591424 -18.381038 -33.519527 144.508668 7.219301 4.346560 37.715250 0.000000 -0.000000 0.000000 -13.325962 -0.030496 46.449427 -1.216022 -6.224067 -7.744255 -0.368458 -6.951334 -11.231853 -16.128134 8.972481 16.789151 4.509594 0.019146 -8.804067 -13.906940 -28.035568 10.687947 -25.657561 -25.753717 -1.799438 -3.726103 -42.717436 19.321927 12.600298 -7.659477 -20.207284 13.765243 15.244666 9.819813 53.558079 8.350028 3.636207 1.112325 28.199202 16.638916 -50.677370 1.058981 -23.757007 
1.297849 -0.292958 0.334141 2.318516 -26.662238 73.372637 42.229723 11.123773 -48.569450 -10.951947 -1.287244 126.343487 -1.147404 8.311572 -14.639157 0.000000 -0.000000 0.000000 6.487541 -8.728586 -77.864331 -18.495613 -33.569129 144.720580 7.379953 4.523317 38.079757 0.000000 -0.000000 0.000000 -13.007112 0.617742 46.947295 -1.921534 -6.199051 -7.299392 -0.468073 -6.749284 -11.039111 -16.453091 8.173608 17.523188 6.134309 -0.235510 -10.196434 -12.531141 -29.915769 10.382643 -26.313018 -25.578360 -2.338290 -3.476187 -39.577907 19.168089 13.162258 -6.872127 -20.254976 11.611117 16.373092 9.589733 57.686849 7.396099 3.426185 0.602558 30.089977 14.450027 -51.740005 -1.890385 -26.389298 
1.299671 -0.292932 0.334605 3.157236 -26.249826 73.317036 41.978992 11.217854 -49.384640 -11.158123 -1.606940 126.517514 -0.949273 8.275430 -15.451350 0.000000 -0.000000 0.000000 6.392345 -9.618115 -78.294501 -18.550536 -33.616732 144.906066 7.631353 4.903237 38.321947 0.000000 -0.000000 0.000000 -12.753238 1.093936 47.250238 -2.483053 -6.265919 -6.766139 -0.603200 -6.569570 -10.881949 -16.541318 7.480950 18.385221 7.567612 -0.293227 -11.475598 -11.410551 -31.453193 10.024928 -27.008531 -25.412123 -2.679086 -3.201528 -36.811986 18.313603 13.490037 -5.903792 -20.758989 9.952342 17.399329 9.197268 61.650514 7.277046 3.601321 0.554796 32.472473 12.199873 -50.626193 -5.072685 -30.193884 
1.300633 -0.292419 0.334895 3.679263 -25.758230 73.662882 41.936414 11.338713 -50.270277 -11.193598 -1.873218 126.599079 -0.961601 8.310955 -16.162022 0.000000 -0.000000 0.000000 6.306621 -9.923431 -78.723329 -18.864928 -33.794762 145.002245 8.022588 5.353396 38.490553 0.000000 -0.000000 0.000000 -12.678245 1.380533 47.499278 -2.695733 -6.313967 -6.426747 -0.695767 -6.424697 -10.855800 -16.120110 7.308988 19.140070 8.394433 -0.711581 -12.150198 -10.823616 -32.171529 9.809956 -27.557458 -25.534844 -2.754650 -2.894601 -34.329480 17.715470 13.575921 -5.153228 -21.037442 9.546631 18.190717 9.040752 64.227752 9.058620 4.039303 0.988469 32.255937 10.863669 -50.735107 -7.094439 -32.512905 
1.301202 -0.291253 0.334338 3.735275 -25.365838 74.595202 41.860596 11.600096 -51.243992 -11.088161 -2.082828 126.561679 -1.299130 8.548981 -16.732585 0.000000 -0.000000 0.000000 5.616418 -9.575693 -79.105846 -16.686075 -33.736826 143.246107 12.188605 8.816478 39.414194 0.000000 -0.000000 0.000000 -12.884693 1.896263 47.844949 -2.274503 -6.401147 -6.544471 -0.666944 -6.164211 -11.030598 -15.405942 7.715675 19.934493 8.805575 -1.790813 -12.543939 -10.812992 -32.523969 9.743154 -28.099220 -25.787052 -2.501645 -2.436561 -32.238542 17.283318 13.145626 -4.908192 -20.599688 10.615189 19.080148 9.719442 64.874210 12.298623 4.280982 0.933155 29.538198 10.156491 -50.996047 -8.298008 -33.378693 
1.302382 -0.291114 0.333769 3.848473 -25.183687 75.210820 41.691056 11.414986 -51.818441 -10.939053 -2.256468 126.519943 -1.494849 8.552699 -17.175427 0.000000 -0.000000 0.000000 6.136875 -9.542165 -79.942996 -17.019571 -33.592195 143.283432 12.209351 8.664073 39.451342 0.000000 -0.000000 0.000000 -13.195496 2.169606 48.668679 -1.884448 -6.141172 -6.873633 -0.431234 -6.018599 -11.137561 -14.933302 7.756618 20.434914 8.820986 -2.738033 -12.694259 -11.592204 -32.914749 10.325546 -27.886484 -26.102376 -1.908997 -2.325044 -30.652248 17.626987 13.998519 -4.621701 -20.940957 12.282913 20.665377 10.695597 64.038614 15.501962 4.458284 -0.122794 25.376603 7.491876 -54.130445 -9.890992 -32.736876 
1.303623 -0.291371 0.333455 3.824528 -24.880994 75.849728 41.666040 11.210761 -52.334192 -11.050280 -2.433269 126.564142 -1.839016 8.462633 -17.502729 0.000000 -0.000000 0.000000 6.245199 -9.302750 -80.500561 -18.237278 -33.033737 144.641524 11.907826 7.340039 38.621740 0.000000 -0.000000 0.000000 -13.009066 2.242147 49.592304 -1.774469 -5.673032 -7.055182 -0.255880 -5.902434 -11.160216 -14.506482 7.539371 20.775397 8.876847 -3.474115 -13.125964 -12.443265 -33.937985 10.813876 -27.397298 -26.103491 -1.105687 -2.338064 -29.285195 17.506196 15.452359 -4.465452 -20.976594 12.935028 22.444270 10.951689 63.000917 17.036577 4.498185 -0.902849 21.373799 4.442550 -59.034495 -11.904100 -29.697989 
1.304768 -0.292311 0.333787 3.655305 -24.610256 76.953422 41.555192 11.205429 -52.973171 -11.144075 -2.531482 126.643596 -1.967584 8.437966 -17.834863 0.000000 -0.000000 0.000000 6.251490 -9.015198 -81.276892 -18.734091 -32.732196 145.391536 12.188006 6.930204 37.948073 0.000000 -0.000000 0.000000 -12.722531 2.169155 49.742047 -1.855074 -5.363986 -6.626509 -0.141924 -5.964481 -11.139577 -14.210861 6.990097 21.290971 9.417588 -3.148044 -13.974289 -12.215965 -35.094600 11.088515 -27.595009 -26.033730 -0.866115 -2.012480 -28.127236 16.972335 16.091635 -4.642913 -20.810298 11.470517 23.627227 10.977239 63.265241 17.001799 4.679318 -0.552906 21.220242 4.031005 -59.305882 -12.536477 -30.131358 
1.306224 -0.294102 0.334238 3.285236 -24.470006 78.389514 41.348325 11.198898 -53.512923 -11.150138 -2.491079 126.622093 -2.267730 8.368689 -18.128180 0.000000 -0.000000 0.000000 6.341746 -8.552557 -82.377815 -19.260194 -32.846086 145.894012 12.006916 6.736026 37.500686 0.000000 -0.000000 0.000000 -12.733802 2.040511 49.679925 -1.481469 -5.412901 -6.454779 0.076978 -6.290783 -11.013043 -13.611866 7.242727 21.895372 9.483642 -2.836109 -14.752564 -12.192793 -35.195900 11.582473 -27.924638 -26.218819 -0.965546 -1.380335 -26.946805 16.196839 16.766085 -4.593669 -20.670884 11.271513 23.254252 11.262020 62.557899 17.804189 4.519702 -0.051229 21.696822 5.061879 -59.717123 -12.381784 -30.396098 
1.307760 -0.296719 0.334846 2.531774 -24.308150 80.055806 41.332849 11.402606 -53.654783 -11.363002 -2.467370 126.597264 -2.769526 8.060602 -18.471534 0.000000 -0.000000 0.000000 6.451430 -7.706497 -83.420518 -19.787886 -32.879230 146.491409 11.854732 6.703289 36.923774 0.000000 -0.000000 0.000000 -12.961972 1.748968 49.630064 -0.801296 -5.554542 -7.164723 0.391738 -6.688205 -10.549984 -12.885674 8.179325 22.707861 8.916495 -2.421202 -15.004629 -12.222729 -34.557620 11.967239 -28.865768 -26.362909 -0.842351 -0.795093 -25.500703 15.187309 18.226872 -3.990069 -21.255998 11.336244 22.006458 10.861777 62.210370 19.039858 4.792606 0.185401 21.574356 6.353279 -60.972771 -12.431301 -29.769204 
1.309619 -0.300170 0.335983 1.465703 -23.938136 81.821986 41.581027 11.791449 -53.473954 -11.648885 -2.569570 126.669645 -3.234062 7.650986 -18.799169 0.000000 -0.000000 0.000000 6.765294 -6.749916 -84.313989 -20.179688 -33.010419 146.968928 11.648410 6.944536 36.353662 0.000000 -0.000000 0.000000 -13.164178 1.251894 49.445624 -0.099116 -5.669609 -7.961791 0.812387 -7.043340 -10.226675 -12.184875 9.066666 23.723915 8.257455 -1.529867 -14.813613 -12.375832 -33.941669 12.424622 -30.081321 -26.175624 -0.713509 -0.417629 -23.826907 14.455953 18.592411 -3.623918 -21.858484 11.217780 21.228960 10.791939 61.826286 20.097176 5.097372 0.680351 21.640615 7.946462 -61.369104 -12.124533 -29.654976 
1.312383 -0.304498 0.337472 0.321333 -23.495394 83.667807 41.910799 12.178898 -53.249509 -11.712221 -2.637633 126.929318 -3.491719 7.332485 -19.035121 0.000000 -0.000000 0.000000 6.993327 -5.810655 -85.267066 -20.668997 -32.972417 147.755666 11.112864 6.685840 35.909093 0.000000 -0.000000 0.000000 -13.155164 0.455472 48.892118 0.460259 -5.757137 -8.398235 1.088553 -7.315493 -10.073666 -11.441605 9.667104 24.469674 7.706786 -0.470856 -14.364247 -12.704494 -33.521425 13.009007 -31.277419 -25.663947 -0.560786 -0.348506 -22.504599 14.626151 17.709086 -3.809174 -21.857332 11.033858 21.138415 11.079506 61.678035 20.784167 5.391382 0.528912 22.006993 8.552046 -61.211297 -11.606579 -29.879379 
